<svg id="Layer_1" data-name="Layer 1" xmlns="http://www.w3.org/2000/svg" viewBox="0 0 151.84 152"><defs><style>.cls-1{opacity:0.6;}</style></defs><title>index</title><path class="cls-1" d="M123.87,108.23c.56-.88,1.13-1.7,1.63-2.55a57.37,57.37,0,0,0,6.93-41.59C126.22,33.24,95.72,13.14,64.55,19.3,33.93,25.36,13.4,55.62,19.16,86.22c5.26,28,28.64,47.48,57.09,47.56,18.16.05,36.32,0,54.48,0h3.53l-6.11-6.33c-16.52,0-32.91.07-49.29,0a74,74,0,0,1-13-1.08c-26.93-5-45.35-32-40.49-59,5-27.82,31.13-46.87,58.4-42,21.66,3.83,36.15,16.61,41.65,37.9s-1.1,39.07-17.8,53.21c-.62.52-1.2,1.08-2.17,2H114A50.38,50.38,0,0,0,123.87,108.23Z"/><path d="M134.24,133.79h-3.53c-18.16,0-36.32,0-54.48,0C47.78,133.7,24.4,114.2,19.14,86.22,13.38,55.62,33.91,25.36,64.53,19.3c31.17-6.16,61.67,13.94,67.88,44.79a57.37,57.37,0,0,1-6.93,41.59c-.5.86-1.07,1.67-1.63,2.55a50.38,50.38,0,0,1-9.9,10.14h25c.73-1.15,1.48-2.23,2.14-3.35a75.47,75.47,0,0,0,9.11-54.67C142,19.78,101.93-6.64,61,1.46c-40.25,8-67.24,47.75-59.68,88C8.19,126.22,38.93,151.86,76.33,152c23.88.06,47.75,0,71.63,0h3.8Z"/></svg>