<svg id="Layer_1" data-name="Layer 1" xmlns="http://www.w3.org/2000/svg" viewBox="0 0 152 152"><defs><style>.cls-1{fill:none;stroke:#103140;stroke-linecap:round;stroke-miterlimit:10;stroke-width:2px;}</style></defs><title>index</title><line class="cls-1" x1="75.58" y1="41.71" x2="75.58" y2="116.91"/><circle class="cls-1" cx="111.98" cy="96.36" r="5.08"/><circle class="cls-1" cx="108.74" cy="63.26" r="5.08"/><circle class="cls-1" cx="95.88" cy="46.79" r="5.08"/><circle class="cls-1" cx="75.57" cy="36.6" r="5.08"/><circle class="cls-1" cx="60.25" cy="46.79" r="5.08"/><circle class="cls-1" cx="45.1" cy="65.79" r="5.08"/><circle class="cls-1" cx="40.02" cy="86.22" r="5.08"/><polyline class="cls-1" points="85.76 130.41 85.76 70.92 95.94 60.75 95.94 51.85"/><polyline class="cls-1" points="65.4 129.57 65.4 86.23 48.64 69.44"/><polyline class="cls-1" points="75.57 76.02 60.35 60.8 60.35 51.88"/><polyline class="cls-1" points="65.4 106.56 55.28 106.56 39.95 91.29"/><polyline class="cls-1" points="85.76 111.67 101 111.67 111.16 101.49"/><polyline class="cls-1" points="108.74 68.34 108.74 78.56 95.88 91.29 85.81 91.29"/><path class="cls-1" d="M65.41,129.52a54.58,54.58,0,1,1,50.4-16.24,2.14,2.14,0,0,0,1.54,3.63h20.33a2.17,2.17,0,0,0,1.83-1,74.73,74.73,0,0,0,11.4-43.63c-1.86-38.52-33.43-69.76-72-71.22A75,75,0,0,0,1,76.6C1.32,117.53,36.5,151,77.44,151h69.48a2.14,2.14,0,0,0,1.78-3.33L137.92,131.5a2.14,2.14,0,0,0-1.78-.95H85.76"/></svg>