<svg id="Layer_1" data-name="Layer 1" xmlns="http://www.w3.org/2000/svg" viewBox="0 0 450 153"><defs><style>.cls-1{opacity:0.6;}.cls-2,.cls-3{fill:none;stroke-miterlimit:10;}.cls-2{stroke:#103140;stroke-linecap:round;stroke-width:2px;}.cls-3{stroke:#a2aebb;}</style></defs><title>index</title><path class="cls-1" d="M392,108.73c.56-.88,1.13-1.7,1.63-2.55a57.42,57.42,0,0,0,6.94-41.59c-6.22-30.85-36.72-50.95-67.89-44.79-30.62,6.06-51.14,36.32-45.39,66.92,5.26,28,28.64,47.48,57.1,47.56,18.15.05,36.31,0,54.47,0h3.53L396.31,128c-16.52,0-32.9.07-49.29,0a74,74,0,0,1-13-1.08c-26.92-5-45.35-32-40.49-59C298.57,40,324.7,21,352,25.8c21.66,3.83,36.15,16.61,41.66,37.9s-1.11,39.07-17.81,53.21c-.62.52-1.2,1.08-2.16,2h8.48A50.38,50.38,0,0,0,392,108.73Z"/><path d="M402.4,134.29h-3.53c-18.16,0-36.32,0-54.48,0-28.45-.08-51.83-19.58-57.09-47.56-5.75-30.6,14.77-60.86,45.39-66.92,31.17-6.16,61.67,13.94,67.89,44.79a57.42,57.42,0,0,1-6.94,41.59c-.5.86-1.07,1.67-1.63,2.55a50.38,50.38,0,0,1-9.9,10.14h25c.74-1.15,1.48-2.23,2.14-3.35a75.43,75.43,0,0,0,9.12-54.67c-8.17-40.57-48.27-67-89.25-58.89-40.25,8-67.24,47.75-59.68,88,6.92,36.78,37.66,62.42,75.07,62.53,23.87.06,47.74,0,71.62,0h3.81Z"/><line class="cls-2" x1="105.58" y1="42.21" x2="105.58" y2="117.41"/><circle class="cls-2" cx="141.98" cy="96.86" r="5.08"/><circle class="cls-2" cx="138.74" cy="63.76" r="5.08"/><circle class="cls-2" cx="125.88" cy="47.29" r="5.08"/><circle class="cls-2" cx="105.57" cy="37.1" r="5.08"/><circle class="cls-2" cx="90.25" cy="47.29" r="5.08"/><circle class="cls-2" cx="75.1" cy="66.29" r="5.08"/><circle class="cls-2" cx="70.02" cy="86.72" r="5.08"/><polyline class="cls-2" points="115.76 130.91 115.76 71.42 125.94 61.25 125.94 52.35"/><polyline class="cls-2" points="95.4 130.07 95.4 86.73 78.64 69.94"/><polyline class="cls-2" points="105.57 76.52 90.35 61.3 90.35 52.38"/><polyline class="cls-2" points="95.4 107.06 85.28 107.06 69.95 91.79"/><polyline class="cls-2" points="115.76 112.17 131 112.17 141.16 101.99"/><polyline class="cls-2" points="138.74 68.84 138.74 79.06 125.88 91.79 115.81 91.79"/><path class="cls-2" d="M95.41,130a54.58,54.58,0,1,1,50.4-16.24,2.14,2.14,0,0,0,1.54,3.63h20.33a2.17,2.17,0,0,0,1.83-1,74.73,74.73,0,0,0,11.4-43.63c-1.86-38.52-33.43-69.76-72-71.22A75,75,0,0,0,31,77.1c.32,40.93,35.5,74.4,76.44,74.4h69.48a2.14,2.14,0,0,0,1.78-3.33L167.92,132a2.14,2.14,0,0,0-1.78-.95H115.76"/><line class="cls-3" x1="225" y1="5.5" x2="225" y2="155.5"/></svg>